<svg width="32" height="32" viewBox="0 0 32 32" fill="none" xmlns="http://www.w3.org/2000/svg">
<path fill-rule="evenodd" clip-rule="evenodd" d="M8.38863 8.39573C8.90829 7.86958 9.7525 7.86787 10.2742 8.39192L16.0115 14.1544L21.7239 8.39382C22.2446 7.86873 23.0888 7.86873 23.6095 8.39382C24.1302 8.91892 24.1302 9.77027 23.6095 10.2954L17.9009 16.0522L23.5001 21.676C24.0218 22.2 24.0235 23.0514 23.5039 23.5775C22.9842 24.1037 22.14 24.1054 21.6182 23.5814L16.0153 17.9537L10.4101 23.6062C9.88945 24.1313 9.04523 24.1313 8.52453 23.6062C8.00383 23.0811 8.00383 22.2297 8.52453 21.7046L14.1259 16.056L8.39242 10.2973C7.87068 9.77323 7.86898 8.92188 8.38863 8.39573Z" fill="#616161"/>
</svg>
